{"glyphs":{":":{"x_min":0,"x_max":334,"ha":334,"o":"m 159 283 q 133 283 112 290 q 91 298 77 312 q 47 340 47 388 q 47 428 80 457 q 113 487 163 487 q 214 487 246 453 q 275 422 275 381 q 275 339 242 312 q 208 283 159 283 z m 55 53 q 47 73 47 94 q 47 116 56 134 q 64 151 80 165 q 113 195 163 195 q 214 195 246 161 q 275 130 275 89 q 275 47 242 20 q 208 -9 160 -9 q 79 -9 55 53 z"},"$":{"x_min":0,"x_max":561,"ha":561,"o":"m 199 0 q 143 13 90 42 q 60 59 60 81 q 60 89 66 95 q 71 102 80 102 q 91 102 110 85 q 151 50 207 36 l 250 236 l 164 318 q 72 407 57 479 q 51 504 51 535 q 51 566 65 596 q 80 626 109 649 q 172 700 284 700 q 318 700 347 695 q 351 713 353 725 q 356 738 357 747 q 362 772 379 772 q 386 772 392 768 q 398 763 398 754 q 398 743 391 712 l 383 688 q 388 687 392 685 q 396 684 410 679 q 423 674 438 666 q 452 659 460 652 q 474 641 474 628 q 474 606 454 606 q 446 606 432 618 q 409 638 375 650 l 337 475 q 499 340 519 256 q 525 229 525 191 q 525 153 508 114 q 491 75 458 48 q 391 -9 275 -9 q 255 -9 235 -6 q 232 -21 230 -32 l 226 -57 q 221 -92 200 -92 q 191 -92 185 -86 q 179 -80 179 -73 q 179 -64 185 -49 q 193 -27 199 0 z m 340 659 q 313 664 281 664 q 250 664 231 650 q 213 636 213 616 q 213 576 306 500 z m 243 29 q 267 27 282 27 q 330 27 352 41 q 375 55 375 71 q 375 87 372 97 q 369 107 359 121 q 349 135 330 155 l 280 206 z"},"?":{"x_min":0,"x_max":452,"ha":452,"o":"m 329 245 q 268 212 191 234 q 126 253 97 308 q 82 335 82 363 q 82 390 85 407 q 89 425 98 444 q 115 481 145 517 q 174 553 186 570 q 199 588 207 602 q 221 626 221 639 q 221 664 192 664 q 150 664 115 633 q 103 620 93 620 q 73 620 73 638 q 73 651 90 666 q 107 680 131 688 q 169 700 213 700 q 256 700 289 689 q 321 679 344 661 q 392 623 392 566 q 392 510 362 453 q 333 396 299 352 q 264 309 259 299 q 253 290 253 282 q 253 265 271 265 q 295 265 311 277 q 335 296 349 296 q 363 296 363 280 q 363 264 329 245 z m 125 74 q 125 116 153 139 q 181 163 227 163 q 273 163 300 137 q 325 112 325 74 q 325 39 298 16 q 270 -9 224 -9 q 155 -9 132 41 q 125 56 125 74 z"},"<":{"x_min":0,"x_max":457,"ha":457,"o":"m 38 232 q 15 250 15 262 q 15 284 38 299 l 305 485 q 332 503 345 514 q 364 530 376 530 q 399 530 399 514 q 399 501 378 488 q 333 459 329 457 l 59 265 q 303 87 314 80 l 369 43 q 383 35 391 28 q 399 21 399 11 q 399 1 393 -4 q 387 -9 380 -9 q 366 -9 352 2 q 338 14 318 28 z"},"'":{"x_min":0,"x_max":213,"ha":213,"o":"m 106 404 q 82 404 77 429 q 67 499 51 547 l 28 614 q 22 632 22 645 q 22 658 27 669 q 32 680 42 688 q 65 707 106 707 q 146 707 168 690 q 190 673 190 646 q 190 634 185 616 l 169 572 q 144 496 133 431 q 129 410 114 405 q 110 404 106 404 z"},"=":{"x_min":0,"x_max":495,"ha":495,"o":"m 148 354 l 74 351 q 62 351 55 357 q 47 363 47 372 q 47 393 74 393 q 81 393 88 393 l 103 392 q 127 389 144 389 l 330 389 q 359 389 373 391 q 396 393 408 393 q 436 393 436 372 q 436 363 428 357 q 420 351 406 351 l 336 354 z m 128 162 l 74 159 q 62 159 55 165 q 47 171 47 180 q 47 202 74 202 l 144 198 l 330 198 l 408 202 q 436 202 436 180 q 436 171 428 165 q 420 159 406 159 l 357 162 q 242 162 128 162 z"},"a":{"x_min":0,"x_max":688,"ha":688,"o":"m 411 32 q 349 -9 272 -9 q 171 -9 110 42 q 47 94 47 187 q 47 269 110 321 q 174 375 279 375 q 350 375 411 348 l 411 482 q 367 495 333 495 q 299 495 275 492 q 252 489 231 483 q 186 470 162 449 q 148 436 137 436 q 126 436 120 442 q 114 447 114 454 q 114 461 117 467 q 119 472 126 478 q 141 491 175 503 q 246 530 317 530 q 534 530 594 427 q 620 381 620 306 l 620 0 l 411 0 z m 411 310 q 350 339 289 339 q 279 339 270 338 l 270 27 q 272 27 275 27 q 278 27 281 27 q 348 27 411 74 z"},"L":{"x_min":0,"x_max":538,"ha":538,"o":"m 505 44 q 531 44 531 22 q 531 14 520 7 q 510 0 483 0 l 86 0 l 86 691 l 335 691 l 335 32 l 427 32 q 458 32 480 38 q 502 44 505 44 z"},"3":{"x_min":0,"x_max":634,"ha":634,"o":"m 276 402 q 288 402 298 403 l 298 663 l 288 664 q 282 665 277 665 q 272 665 257 665 q 241 665 217 661 q 194 658 175 652 q 137 642 121 624 q 106 606 93 605 q 67 604 66 623 q 64 652 148 681 q 207 700 279 700 q 351 700 400 687 q 448 674 480 652 q 543 609 543 535 q 543 462 469 413 q 444 396 410 385 q 522 349 557 260 q 568 231 568 191 q 568 152 548 114 q 528 76 490 48 q 410 -9 271 -9 q 153 -9 66 57 q 36 80 26 106 q 23 114 23 120 q 25 141 42 139 q 60 137 69 117 q 79 98 96 83 q 113 67 137 55 q 190 27 253 27 l 298 27 l 298 364 q 281 366 266 366 l 248 366 l 197 363 q 163 363 163 382 q 163 406 195 406 z m 356 651 q 346 655 334 657 z"},";":{"x_min":0,"x_max":334,"ha":334,"o":"m 159 283 q 133 283 112 290 q 91 298 77 312 q 47 340 47 388 q 47 428 80 457 q 113 487 163 487 q 214 487 246 453 q 275 422 275 381 q 275 339 242 312 q 208 283 159 283 z m 218 7 q 192 -9 161 -9 q 129 -9 110 -1 q 90 8 76 21 q 48 51 48 88 q 48 129 78 157 q 108 186 155 186 q 210 186 243 152 q 274 120 274 68 q 274 -10 224 -71 q 197 -104 182 -109 q 167 -115 159 -115 q 136 -115 136 -94 q 136 -86 142 -83 l 159 -76 q 184 -64 207 -32 q 216 -17 218 7 z"},"J":{"x_min":0,"x_max":557,"ha":557,"o":"m 223 28 l 223 691 l 472 691 l 472 261 q 472 132 407 65 q 334 -9 180 -9 q 79 -9 26 37 l 18 45 q 0 64 1 78 q 5 101 22 99 q 39 96 48 80 q 58 63 72 53 q 86 43 104 36 q 123 30 143 27 q 164 23 184 23 q 204 23 223 28 z"},"V":{"x_min":0,"x_max":615,"ha":615,"o":"m 579 696 q 599 696 599 675 q 599 665 593 651 q 586 637 582 628 l 317 -27 l -4 691 l 262 691 l 417 326 l 526 598 q 544 642 549 662 q 555 681 561 689 q 567 696 579 696 z"},"\"":{"x_min":0,"x_max":433,"ha":433,"o":"m 326 404 q 301 404 297 429 q 287 499 271 547 l 248 614 q 242 632 242 645 q 242 658 247 669 q 252 680 262 688 q 285 707 326 707 q 366 707 388 690 q 410 673 410 646 q 410 634 404 616 l 389 572 q 363 496 353 431 q 349 410 334 405 q 330 404 326 404 z m 106 404 q 82 404 77 429 q 67 499 51 547 l 28 614 q 22 632 22 645 q 22 658 27 669 q 32 680 42 688 q 65 707 106 707 q 146 707 168 690 q 190 673 190 646 q 190 634 185 616 l 169 572 q 144 496 133 431 q 129 410 114 405 q 110 404 106 404 z"},"7":{"x_min":0,"x_max":598,"ha":598,"o":"m 439 86 q 439 36 441 0 l 165 0 q 163 26 163 71 q 163 116 168 172 q 173 228 182 284 q 190 340 203 395 q 215 450 229 499 q 258 599 290 656 l 276 656 l 150 656 l 115 656 q 100 656 89 655 q 88 638 86 627 q 83 616 83 609 q 79 583 77 575 q 71 555 51 560 q 42 562 37 570 q 31 578 33 586 q 35 594 38 603 q 41 612 43 624 q 52 653 52 672 q 52 690 75 690 l 570 690 q 521 600 483 438 q 439 254 439 86 z"},"S":{"x_min":0,"x_max":581,"ha":581,"o":"m 86 35 q 69 45 57 56 q 44 66 44 79 q 44 102 64 102 q 78 102 94 87 q 110 73 130 62 q 150 51 173 43 q 222 27 263 27 q 304 27 326 32 q 348 38 363 47 q 396 67 396 98 q 396 127 368 156 q 344 181 301 216 l 218 281 q 92 378 70 458 q 62 486 62 520 q 62 554 77 587 q 93 621 123 646 q 188 700 300 700 q 357 700 402 683 q 448 666 464 653 q 481 640 481 629 q 481 606 462 606 q 452 606 439 617 q 427 628 412 636 q 397 644 378 650 q 337 664 298 664 q 225 664 225 616 q 225 596 238 579 q 262 549 330 494 q 398 438 439 397 q 480 355 502 322 q 536 270 536 214 q 536 157 516 118 q 497 79 461 50 q 386 -9 274 -9 q 163 -9 86 35 z"},"}":{"x_min":0,"x_max":456,"ha":456,"o":"m 148 -42 l 148 185 q 148 287 236 328 q 267 343 310 347 q 184 358 158 435 q 148 462 148 499 l 148 717 q 114 732 89 730 q 44 728 44 750 q 44 757 52 762 q 60 768 76 768 q 195 768 271 667 q 345 570 354 416 q 355 389 362 381 q 373 368 391 367 q 420 364 420 349 q 420 333 396 330 q 373 328 364 316 q 355 304 354 277 q 342 112 257 4 q 219 -44 171 -71 q 124 -97 76 -97 q 44 -97 44 -79 q 44 -62 79 -60 q 114 -58 148 -42 z"},"Z":{"x_min":0,"x_max":577,"ha":577,"o":"m 527 42 q 553 42 553 22 q 553 14 542 7 q 531 0 504 0 l 25 0 l 280 656 l 155 656 q 118 656 103 652 q 84 648 76 648 q 51 648 51 668 q 51 691 99 691 l 535 691 l 286 36 l 449 36 q 485 36 500 39 q 517 42 527 42 z"},"x":{"x_min":0,"x_max":531,"ha":531,"o":"m 12 10 q 12 25 30 39 q 47 52 55 62 q 55 62 185 221 l 5 521 l 227 521 l 331 349 q 421 465 428 476 q 441 497 445 508 q 455 530 471 530 q 479 530 485 525 q 491 520 491 513 q 491 505 489 498 q 486 491 479 479 q 467 458 435 417 l 353 312 l 541 0 l 317 0 l 206 186 l 87 36 q 56 -3 43 -8 q 38 -9 31 -9 q 24 -9 18 -4 q 12 2 12 10 z"},")":{"x_min":0,"x_max":458,"ha":458,"o":"m 166 -37 l 166 710 q 120 732 91 730 q 62 729 53 734 q 44 739 44 748 q 44 768 83 768 q 121 768 163 753 q 205 737 241 709 q 277 681 307 642 q 337 603 359 555 q 404 457 404 341 q 404 212 351 107 q 302 13 224 -43 q 149 -97 76 -97 q 44 -97 44 -79 q 44 -62 83 -59 q 123 -57 166 -37 z"},"&":{"x_min":0,"x_max":694,"ha":694,"o":"m 649 384 q 649 366 616 366 q 605 366 595 366 l 574 368 q 541 370 522 370 q 580 338 598 255 q 603 231 603 198 q 603 165 584 126 q 564 87 530 57 q 454 -9 338 -9 q 216 -9 145 48 q 71 108 71 211 q 71 271 110 321 q 150 371 218 393 q 142 424 117 494 q 109 516 109 545 q 109 574 126 604 q 144 633 176 654 q 246 700 362 700 q 391 700 418 697 q 446 693 468 687 q 489 681 503 674 q 530 660 530 642 q 530 624 509 624 q 498 624 490 631 q 482 638 469 646 q 438 665 388 665 q 337 665 323 663 l 323 30 q 375 20 423 36 q 470 52 500 76 q 565 129 565 202 q 565 277 527 324 q 489 369 431 369 l 419 369 q 383 369 383 392 q 383 408 409 408 l 458 405 q 561 405 595 408 q 630 411 640 403 q 649 396 649 384 z"},"_":{"x_min":0,"x_max":428,"ha":428,"o":"m 379 -52 q 419 -52 437 -55 q 454 -58 454 -71 q 454 -83 438 -86 q 422 -89 386 -89 l 42 -89 q 4 -89 -13 -86 q -31 -83 -31 -71 q -31 -58 -12 -55 q 7 -52 48 -52 z"},"v":{"x_min":0,"x_max":522,"ha":522,"o":"m 2 521 l 223 521 l 356 248 l 439 414 q 465 467 472 493 q 479 519 485 524 q 492 530 501 530 q 511 530 516 524 q 521 518 521 511 q 521 505 520 499 q 519 492 516 481 q 508 461 485 412 l 270 -22 z"},"O":{"x_min":0,"x_max":817,"ha":817,"o":"m 155 601 q 258 700 413 700 q 566 700 665 603 q 764 504 764 347 q 764 190 662 89 q 598 26 505 2 q 458 -9 397 -9 q 336 -9 271 16 q 207 41 159 88 q 110 135 82 202 q 53 270 53 349 q 53 428 80 491 q 107 555 155 601 z m 412 664 q 385 664 362 660 l 362 30 q 384 26 412 26 q 542 26 632 113 q 725 204 725 347 q 725 483 638 573 q 549 664 412 664 z"},"(":{"x_min":0,"x_max":458,"ha":458,"o":"m 414 750 q 414 728 375 730 q 337 732 292 710 l 292 -37 q 336 -58 381 -60 q 414 -62 414 -79 q 414 -97 381 -97 q 348 -97 309 -83 q 271 -69 235 -43 q 198 -17 166 21 q 133 59 108 107 q 54 212 54 341 q 54 515 151 642 q 212 722 296 753 q 338 768 368 768 q 414 768 414 750 z"},"C":{"x_min":0,"x_max":701,"ha":701,"o":"m 646 116 q 667 116 667 93 q 667 75 638 56 q 585 21 549 11 q 481 -9 407 -9 q 332 -9 263 17 q 194 44 145 92 q 43 192 43 352 q 43 428 72 492 q 101 557 151 603 q 259 700 421 700 q 513 700 582 668 q 656 636 656 613 q 656 604 650 597 q 644 590 636 590 q 620 590 607 604 q 595 618 573 629 q 551 640 525 648 q 473 665 429 665 q 386 665 358 659 l 358 33 q 392 27 418 27 q 445 27 472 30 q 500 34 526 42 q 585 59 615 93 q 625 106 632 111 q 638 116 646 116 z"},"W":{"x_min":0,"x_max":958,"ha":958,"o":"m 943 675 q 943 667 939 657 q 928 625 918 602 l 660 -27 l 476 384 l 285 -27 l -4 691 l 263 691 l 400 325 l 586 722 l 760 326 l 882 613 q 888 629 893 645 l 901 674 q 906 696 925 696 q 943 696 943 675 z"},"A":{"x_min":0,"x_max":662,"ha":662,"o":"m 208 87 q 119 87 86 88 l 72 55 q 66 41 61 25 q 49 -5 29 -5 q 20 -5 14 0 q 8 6 8 13 q 8 23 18 37 q 32 57 46 90 q 4 94 4 115 q 4 135 28 135 q 43 135 62 130 l 306 722 l 640 0 l 386 0 l 345 87 z m 102 126 q 149 123 186 123 l 329 123 l 207 386 z"},"f":{"x_min":0,"x_max":408,"ha":408,"o":"m 401 484 l 349 486 l 294 486 l 294 0 l 84 0 l 85 486 l 77 486 l 31 484 q 2 484 2 504 q 2 523 28 523 l 86 521 q 97 610 165 657 q 228 700 329 700 q 423 700 459 662 q 469 652 469 643 q 469 621 447 621 q 436 621 426 628 l 408 641 q 380 662 347 664 q 338 664 329 664 q 319 664 311 663 q 303 662 294 661 l 294 521 l 337 521 l 402 523 q 429 523 429 504 q 429 484 401 484 z"},"Q":{"x_min":0,"x_max":797,"ha":797,"o":"m 603 49 q 513 -9 397 -9 q 326 -9 261 16 q 197 41 148 88 q 43 191 43 354 q 43 502 145 601 q 248 700 402 700 q 556 700 654 603 q 754 504 754 347 q 754 258 721 188 q 688 118 631 71 l 677 35 q 710 10 720 7 q 730 5 741 4 q 763 2 763 -14 q 763 -34 737 -34 q 716 -34 698 -22 q 679 -11 657 6 z m 402 664 q 375 664 352 660 l 352 30 q 374 26 411 26 q 495 26 572 74 q 520 112 477 112 q 462 112 455 118 q 448 124 448 132 q 448 151 474 151 q 525 151 601 95 q 653 137 684 200 q 715 264 715 339 q 715 414 692 472 q 669 530 627 573 q 539 664 402 664 z"},"w":{"x_min":0,"x_max":799,"ha":799,"o":"m 2 521 l 223 521 l 348 259 l 496 544 l 649 255 l 719 414 q 745 472 750 494 q 755 517 762 524 q 769 530 778 530 q 787 530 793 523 q 798 517 798 511 q 798 506 798 502 q 797 497 793 487 q 790 477 782 460 l 572 -22 l 409 290 l 251 -22 z"},"-":{"x_min":0,"x_max":360,"ha":360,"o":"m 128 298 l 74 295 q 62 295 55 301 q 47 307 47 316 q 47 338 74 338 q 74 338 144 333 l 195 333 l 273 338 q 301 338 301 317 q 301 295 271 295 q 263 295 255 296 l 240 297 q 227 298 201 298 q 165 298 128 298 z"},"E":{"x_min":0,"x_max":584,"ha":584,"o":"m 515 42 q 540 42 540 22 q 540 14 529 7 q 518 0 492 0 l 78 0 l 78 691 q 271 691 463 691 l 503 692 q 540 692 540 671 q 540 663 533 656 q 527 648 520 648 q 507 648 493 651 q 472 656 435 656 l 327 656 l 327 507 l 416 507 q 416 507 476 509 q 487 509 494 504 q 502 499 502 490 q 502 469 475 469 l 454 470 q 438 471 427 471 l 327 471 l 327 36 l 435 36 q 471 36 486 39 q 504 42 515 42 z"},"s":{"x_min":0,"x_max":500,"ha":500,"o":"m 46 65 q 46 73 52 79 q 57 85 65 85 q 73 85 79 80 q 79 80 91 69 q 142 24 233 24 q 294 24 312 50 q 317 57 317 64 q 317 71 314 77 q 312 84 303 94 q 294 103 278 116 l 235 151 q 128 234 89 286 q 53 333 53 382 q 53 444 110 486 q 169 530 263 530 q 329 530 367 515 q 405 500 420 488 q 436 475 436 465 q 436 444 419 444 q 412 444 405 449 q 398 455 379 469 q 359 482 327 490 q 295 498 267 498 q 239 498 228 489 q 216 480 216 471 q 216 463 220 455 q 223 448 232 438 q 254 412 301 377 q 349 343 381 314 q 414 285 433 261 q 466 217 466 172 q 466 127 450 95 q 433 63 402 40 q 337 -9 229 -9 q 142 -9 84 24 q 46 45 46 65 z"},">":{"x_min":0,"x_max":457,"ha":457,"o":"m 56 -4 q 50 1 50 11 q 50 21 58 28 q 66 35 76 41 q 144 84 157 95 l 390 265 l 120 457 q 85 479 80 482 q 74 485 65 491 q 50 501 50 511 q 50 530 69 530 q 85 530 98 520 q 120 501 144 485 l 412 299 q 435 284 435 266 q 435 250 412 232 l 113 15 q 106 10 99 4 q 72 -18 56 -4 z"},"l":{"x_min":0,"x_max":370,"ha":370,"o":"m 84 691 l 294 691 l 294 0 l 84 0 z"},"8":{"x_min":0,"x_max":665,"ha":665,"o":"m 80 268 q 107 305 146 311 q 155 312 161 306 q 167 300 167 293 q 167 285 160 278 q 154 271 141 269 q 128 267 117 256 q 106 246 100 232 q 88 208 88 174 q 88 140 105 112 q 122 83 152 64 q 215 24 317 24 q 367 24 409 46 q 452 68 452 98 q 452 124 430 149 q 396 187 309 238 q 223 289 179 322 q 135 354 110 385 q 66 438 66 506 q 67 591 147 646 q 226 700 353 700 q 434 700 500 667 q 549 644 570 604 q 581 583 581 554 q 581 524 573 502 q 565 479 552 465 q 529 438 485 428 q 479 427 473 427 q 466 427 461 432 q 456 438 456 445 q 456 452 462 459 q 468 466 481 467 q 495 467 507 473 q 518 478 526 488 q 545 510 545 541 q 545 572 536 590 q 526 608 511 621 q 495 634 475 644 q 456 653 435 659 q 396 669 355 669 q 282 669 250 640 q 238 628 238 611 q 238 594 246 577 q 253 559 271 540 q 311 498 387 455 q 464 412 509 380 q 555 348 581 320 q 628 270 628 206 q 627 125 570 72 q 481 -9 311 -9 q 200 -9 126 40 q 91 64 71 98 q 50 132 50 167 q 50 202 58 226 q 66 250 80 268 z"},"\\":{"x_min":0,"x_max":328,"ha":328,"o":"m 288 18 q 288 -5 269 -5 q 255 -5 248 6 q 236 26 222 76 l 68 601 q 60 629 53 641 q 47 653 45 658 q 42 663 42 666 q 40 671 40 677 q 40 684 45 690 q 49 696 57 696 q 65 696 70 694 q 76 691 81 683 q 91 667 105 621 l 252 115 q 266 68 273 55 q 288 30 288 18 z"},"e":{"x_min":0,"x_max":635,"ha":635,"o":"m 538 119 q 557 119 557 101 q 557 88 540 70 q 462 -9 328 -9 q 208 -9 125 63 q 40 139 40 255 q 40 373 117 449 q 198 530 333 530 q 442 530 516 464 q 595 394 595 278 q 595 262 594 243 l 272 243 l 272 34 q 305 27 347 27 q 435 27 497 85 q 509 98 515 105 q 526 119 538 119 z m 407 485 q 375 495 335 495 q 295 495 272 489 l 272 279 l 407 279 z"},"b":{"x_min":0,"x_max":739,"ha":739,"o":"m 417 -9 q 349 -9 285 21 l 285 0 l 84 0 l 84 691 l 285 691 l 285 497 q 347 530 415 530 q 483 530 534 510 q 585 490 622 455 q 698 381 698 265 q 698 148 623 71 q 546 -9 417 -9 z m 415 495 q 343 495 285 455 l 285 63 q 349 27 429 27 l 441 27 q 447 27 453 28 l 453 492 q 434 495 415 495 z"},"%":{"x_min":0,"x_max":777,"ha":777,"o":"m 168 -9 q 149 -9 149 12 q 149 23 158 34 q 167 45 175 55 q 191 72 220 117 l 542 621 q 559 648 567 666 q 576 684 581 690 q 585 696 596 696 q 606 696 613 691 q 620 686 620 679 q 620 672 617 667 q 615 662 611 656 l 601 642 q 595 633 587 621 l 219 40 q 197 5 187 -2 q 176 -9 168 -9 z m 224 385 q 190 385 160 396 q 130 407 108 427 q 61 471 61 539 q 61 603 109 645 q 156 687 226 687 q 292 687 337 646 q 384 603 384 536 q 384 471 337 428 q 292 386 224 385 z m 223 418 q 276 418 311 448 q 348 480 348 535 q 348 587 311 621 q 275 653 223 653 l 220 653 q 218 653 215 653 l 215 418 z m 403 153 q 403 187 416 214 q 428 241 450 261 q 497 303 567 303 q 633 303 678 262 q 725 219 725 152 q 725 87 678 43 q 632 0 566 0 q 496 0 449 43 q 403 86 403 153 z m 564 34 q 616 34 651 64 q 689 96 689 151 q 689 203 652 236 q 616 269 564 269 q 562 269 561 269 q 559 269 557 269 l 557 34 z"},"m":{"x_min":0,"x_max":1083,"ha":1083,"o":"m 650 387 q 651 375 651 363 l 651 0 l 441 0 l 441 474 q 436 476 429 476 l 413 476 q 375 476 324 424 q 309 408 294 388 l 294 0 l 84 0 l 84 521 l 294 521 l 294 443 q 377 530 479 530 q 611 530 642 433 q 684 481 734 506 q 785 530 836 530 q 923 530 965 489 q 1007 447 1007 363 l 1007 0 l 798 0 l 798 474 q 793 476 776 476 q 758 476 743 469 q 729 463 713 451 q 679 426 650 387 z"},"#":{"x_min":0,"x_max":458,"ha":458,"o":"m 311 307 l 377 311 q 388 311 396 305 q 403 299 403 290 q 403 281 395 275 q 388 269 379 269 q 360 269 350 270 l 304 271 l 266 72 q 252 3 234 -6 q 229 -9 220 -9 q 212 -9 207 -2 q 202 4 202 13 q 202 24 208 39 l 217 61 q 228 86 239 149 l 262 271 l 161 271 l 123 72 q 109 3 91 -6 q 86 -9 78 -9 q 70 -9 65 -2 q 60 4 60 13 q 60 26 65 39 q 71 52 74 61 q 78 69 81 81 q 90 114 97 149 l 119 271 l 80 270 q 70 269 54 269 q 38 269 30 275 q 22 281 22 290 q 22 309 44 309 l 57 309 l 84 307 l 126 307 l 145 409 l 83 406 q 70 406 62 413 q 55 419 55 428 q 55 448 77 448 l 125 445 l 151 445 l 184 625 q 197 690 212 697 q 217 700 224 700 q 244 700 244 680 q 244 673 240 662 q 236 651 234 645 q 232 639 230 631 l 227 616 q 225 608 223 601 l 193 445 l 293 445 l 327 625 q 336 672 343 684 q 352 700 367 700 q 387 700 387 680 q 387 673 383 662 q 379 651 377 645 q 375 639 374 631 l 370 616 q 368 608 366 601 l 336 445 q 366 445 378 447 q 399 449 409 449 q 435 449 435 428 q 435 419 427 413 q 420 406 412 406 q 393 406 385 407 q 377 408 370 408 l 343 409 q 335 410 330 410 z m 268 307 l 287 410 l 187 410 l 167 307 z"},",":{"x_min":0,"x_max":333,"ha":333,"o":"m 218 7 q 192 -9 160 -9 q 129 -9 109 -1 q 89 8 76 21 q 47 51 47 88 q 47 129 77 157 q 108 186 154 186 q 209 186 242 152 q 274 120 274 68 q 274 -10 223 -71 q 196 -104 181 -109 q 167 -115 158 -115 q 135 -115 135 -94 q 135 -86 141 -83 l 159 -76 q 184 -64 206 -32 q 216 -17 218 7 z"},"n":{"x_min":0,"x_max":731,"ha":731,"o":"m 446 468 q 434 476 419 476 q 405 476 390 469 q 375 463 358 451 q 324 426 294 385 l 294 0 l 84 0 l 84 521 l 294 521 l 294 438 q 378 530 483 530 q 656 530 656 363 l 656 0 l 446 0 z"},"h":{"x_min":0,"x_max":730,"ha":730,"o":"m 483 530 q 655 530 655 363 l 655 0 l 445 0 l 445 475 q 437 481 422 481 q 408 481 392 474 q 376 467 359 455 q 323 428 294 388 l 294 0 l 84 0 l 84 691 l 294 691 l 294 439 q 378 530 483 530 z"},"z":{"x_min":0,"x_max":548,"ha":548,"o":"m 498 42 q 524 42 524 22 q 524 14 513 7 q 501 0 475 0 l 20 0 l 309 486 l 162 486 q 130 486 113 483 q 90 479 80 479 q 70 479 64 485 q 57 490 57 499 q 57 521 105 521 l 528 521 l 258 36 l 418 36 q 454 36 469 39 q 487 42 498 42 z"},"B":{"x_min":0,"x_max":734,"ha":734,"o":"m 86 691 q 218 691 296 691 q 374 691 391 690 q 463 687 493 674 q 522 660 540 644 q 578 606 578 554 q 578 501 541 462 q 530 450 515 441 q 595 426 646 374 q 701 317 701 236 q 701 153 649 93 q 578 10 428 2 q 390 0 353 0 l 86 0 z m 407 451 l 432 448 l 439 448 q 478 448 506 476 q 537 506 537 550 q 537 604 490 633 q 467 647 444 650 q 420 653 407 654 q 380 656 335 656 l 335 36 l 390 36 q 473 36 525 57 q 587 78 624 126 q 659 171 659 221 q 659 271 644 305 q 629 339 602 363 q 545 413 444 413 l 410 410 q 395 410 387 416 q 380 422 380 431 q 380 451 407 451 z"},"K":{"x_min":0,"x_max":709,"ha":709,"o":"m 86 691 l 335 691 l 335 489 l 509 620 q 546 648 562 666 q 579 683 583 687 q 587 690 591 692 q 597 696 606 696 q 615 696 620 691 q 625 686 625 680 q 625 674 624 670 q 623 666 618 660 q 608 648 581 627 l 472 544 l 655 97 q 660 84 665 74 l 673 57 l 682 40 q 685 33 688 27 q 690 21 689 15 q 689 9 686 4 q 679 -7 669 -7 q 656 -7 649 1 q 640 12 636 25 l 627 52 q 623 66 615 85 l 438 519 l 335 441 l 335 0 l 86 0 z"},"R":{"x_min":0,"x_max":733,"ha":733,"o":"m 416 237 l 456 234 q 542 234 602 294 q 662 354 662 443 q 662 561 559 617 q 502 648 438 653 q 410 656 387 656 l 354 656 q 343 656 335 655 l 335 0 l 86 0 l 86 691 q 201 691 271 691 q 342 691 364 690 q 385 690 402 689 q 419 688 434 688 q 455 686 494 678 q 534 671 572 650 q 611 630 639 600 q 699 535 699 446 q 699 358 643 291 q 586 222 491 202 q 536 62 606 34 q 628 26 649 26 l 688 35 q 706 35 706 17 q 706 -9 646 -9 q 602 -9 565 15 q 508 49 468 148 l 454 183 q 450 191 448 193 q 445 195 438 195 q 432 195 427 194 l 415 193 q 396 193 388 201 q 381 208 381 216 q 381 237 416 237 z"},"T":{"x_min":0,"x_max":605,"ha":605,"o":"m 588 678 q 588 656 541 656 l 427 656 l 427 0 l 177 0 l 177 656 l 104 656 q 66 656 52 652 q 34 648 25 648 q 0 648 0 668 q 0 691 49 691 l 484 691 q 518 691 534 694 q 554 697 563 697 q 588 697 588 678 z"},"P":{"x_min":0,"x_max":741,"ha":741,"o":"m 410 203 l 453 201 q 548 201 609 263 q 672 326 675 426 q 680 581 526 635 q 469 655 376 655 l 335 655 l 335 0 l 86 0 l 86 691 l 273 691 q 425 691 456 687 q 487 682 521 675 q 555 668 594 646 q 634 623 661 591 q 716 526 714 439 q 711 329 649 255 q 586 181 476 163 q 443 159 425 159 q 381 159 381 183 q 381 191 389 197 q 396 203 410 203 z"},"|":{"x_min":0,"x_max":224,"ha":224,"o":"m 132 -89 l 134 -138 q 134 -151 127 -158 q 120 -165 110 -165 q 100 -165 94 -158 q 89 -152 89 -144 q 89 -136 90 -130 l 93 -116 q 95 -100 95 -44 l 95 592 q 95 629 94 642 l 92 660 q 91 665 91 672 q 91 696 111 696 q 119 696 127 690 q 134 685 134 670 l 132 608 z"},"t":{"x_min":0,"x_max":470,"ha":470,"o":"m 285 -9 q 94 -9 94 166 l 93 486 l 37 483 q 11 483 11 503 q 11 523 39 523 l 86 521 l 93 521 l 93 597 l 303 691 l 303 521 l 368 521 l 415 523 q 443 523 443 503 q 443 494 435 489 q 427 483 417 483 l 356 486 l 303 486 l 303 27 q 360 28 398 60 q 416 73 424 95 q 431 116 437 122 q 443 128 452 128 q 460 128 466 122 q 472 115 472 106 q 472 97 467 86 q 462 75 452 63 q 430 36 401 20 q 349 -9 285 -9 z"},"M":{"x_min":0,"x_max":939,"ha":939,"o":"m 7 17 q 9 32 16 45 q 23 58 26 64 q 29 70 33 78 l 51 121 l 252 722 l 468 305 l 677 722 l 928 0 l 666 0 l 544 373 l 357 -18 l 160 334 l 91 121 q 75 85 68 60 q 62 35 57 21 q 47 -9 25 -7 q 16 -6 11 1 q 6 8 7 17 z"},"g":{"x_min":0,"x_max":583,"ha":583,"o":"m 191 159 q 147 146 147 130 q 147 115 173 109 q 222 98 309 95 q 395 93 439 82 q 482 71 508 55 q 555 24 555 -27 q 555 -90 492 -130 q 422 -173 295 -173 q 164 -173 79 -134 q 48 -119 48 -100 q 48 -92 54 -87 q 60 -82 67 -82 q 75 -82 86 -88 q 111 -103 132 -112 q 153 -122 199 -130 q 244 -139 286 -139 q 329 -139 355 -135 q 382 -132 399 -127 q 434 -117 434 -104 q 434 -92 427 -87 q 420 -82 409 -77 q 398 -73 379 -70 q 339 -63 270 -60 q 201 -56 161 -46 q 121 -36 96 -21 q 46 9 46 60 q 46 133 146 179 q 100 204 73 244 q 46 285 46 333 q 46 380 64 415 q 82 450 114 476 q 182 530 290 530 q 337 530 386 516 q 455 583 514 583 q 539 583 551 574 q 563 566 563 553 q 563 541 555 535 q 546 529 539 529 q 526 529 517 532 q 503 537 489 537 q 462 537 422 500 q 502 461 526 388 q 534 364 534 328 q 534 293 514 258 q 493 223 459 197 q 388 145 292 145 q 241 144 191 159 z m 293 180 q 373 181 430 219 q 496 262 496 335 q 496 408 431 453 q 371 494 293 496 z"},"j":{"x_min":0,"x_max":391,"ha":391,"o":"m 102 688 q 102 719 133 741 q 166 765 203 765 q 240 765 260 757 q 281 750 295 738 q 323 714 323 683 q 323 651 291 629 q 259 607 208 607 q 158 607 130 629 q 102 652 102 688 z m -25 -99 q -14 -99 0 -111 q 13 -123 21 -127 q 41 -137 65 -137 q 90 -137 107 -134 l 107 521 l 316 521 l 316 52 q 316 -62 246 -120 q 183 -172 73 -172 q 17 -172 -7 -161 q -46 -142 -46 -120 q -46 -99 -25 -99 z"},"i":{"x_min":0,"x_max":370,"ha":370,"o":"m 80 688 q 80 719 111 741 q 145 765 182 765 q 219 765 239 757 q 259 750 273 738 q 302 714 302 683 q 302 651 270 629 q 237 607 187 607 q 137 607 108 629 q 80 652 80 688 z m 84 521 l 294 521 l 294 0 l 84 0 z"},"y":{"x_min":0,"x_max":522,"ha":522,"o":"m 175 -115 q 205 -106 217 -91 q 233 -72 257 -21 l 268 5 l 2 521 l 224 521 l 363 227 l 443 414 q 465 465 472 492 q 479 519 485 524 q 492 530 501 530 q 511 530 516 524 q 521 519 521 513 q 521 507 520 500 q 519 494 515 483 q 512 472 505 455 l 302 -15 q 266 -100 233 -134 q 205 -165 176 -165 q 146 -165 146 -145 q 146 -125 175 -115 z"},"@":{"x_min":0,"x_max":945,"ha":945,"o":"m 460 499 q 519 499 566 464 l 571 492 l 737 492 l 669 97 q 752 113 810 189 q 868 268 868 372 q 868 507 769 580 q 673 649 508 649 q 397 649 297 593 q 199 537 141 445 q 80 349 80 240 q 80 73 196 -22 q 302 -108 449 -108 q 518 -108 585 -80 q 606 -71 616 -71 q 625 -71 631 -77 q 637 -82 637 -92 q 637 -121 532 -137 q 485 -144 437 -144 q 389 -144 338 -133 q 288 -122 243 -100 q 198 -79 161 -46 q 124 -14 98 28 q 41 118 41 237 q 41 359 107 464 q 171 564 280 624 q 391 684 517 684 q 689 684 795 602 q 906 515 906 367 q 906 271 854 193 q 805 121 720 80 q 637 40 540 40 l 493 44 l 500 85 q 439 50 392 50 q 344 50 313 63 q 282 75 261 99 q 216 147 216 232 q 216 345 278 418 q 346 499 460 499 z m 385 87 q 387 86 404 86 q 421 86 450 97 q 479 107 507 127 l 559 426 q 512 463 456 463 l 454 463 z"},".":{"x_min":0,"x_max":334,"ha":334,"o":"m 55 53 q 47 73 47 94 q 47 116 56 134 q 64 151 80 165 q 113 195 163 195 q 214 195 246 161 q 275 130 275 89 q 275 47 242 20 q 208 -9 160 -9 q 79 -9 55 53 z"},"p":{"x_min":0,"x_max":738,"ha":738,"o":"m 417 -9 q 349 -9 285 21 l 285 -156 l 84 -156 l 84 521 l 285 521 l 285 495 q 349 530 416 530 q 483 530 534 510 q 585 490 622 455 q 698 381 698 265 q 698 148 623 71 q 546 -9 417 -9 z m 415 495 q 343 495 285 455 l 285 65 q 351 27 429 27 l 441 27 q 447 27 453 28 l 453 492 q 434 495 415 495 z"},"X":{"x_min":0,"x_max":644,"ha":644,"o":"m 56 -5 q 36 -5 36 14 q 36 28 57 47 q 77 65 89 82 q 89 82 224 279 l 26 691 l 285 691 l 402 447 l 504 593 q 532 635 546 672 q 557 696 575 696 q 594 696 594 675 q 594 664 568 625 l 422 405 l 617 0 l 359 0 l 245 237 l 120 58 q 83 6 67 -2 q 62 -5 56 -5 z"},"*":{"x_min":0,"x_max":371,"ha":371,"o":"m 285 434 q 285 416 267 416 q 252 416 245 427 q 238 438 233 448 l 186 540 l 153 486 l 138 458 q 132 448 127 437 q 119 417 107 417 q 84 417 84 437 q 84 449 105 479 l 158 555 q 128 554 105 553 q 82 553 72 552 q 57 551 45 551 q 34 551 28 557 q 21 563 21 573 q 21 582 29 587 q 37 593 46 593 q 61 593 72 592 q 87 590 108 589 l 160 586 l 108 668 q 93 690 93 701 q 93 722 114 722 q 126 722 137 699 l 186 603 l 230 689 q 239 708 246 715 q 252 722 260 722 q 278 722 278 705 q 278 693 259 661 l 213 587 l 298 591 q 314 592 323 592 q 350 592 350 571 q 350 550 323 550 q 314 550 304 551 q 276 554 212 556 q 268 467 270 464 q 272 461 276 456 q 285 444 285 434 z"},"Y":{"x_min":0,"x_max":645,"ha":645,"o":"m 214 16 q 214 29 227 45 q 252 75 275 115 l 300 159 l 10 691 l 295 691 l 435 396 l 560 619 q 573 644 583 670 q 593 696 609 696 q 629 696 629 676 q 629 665 620 649 l 286 54 q 281 44 277 38 l 269 20 q 256 -5 235 -5 q 214 -5 214 16 z"},"c":{"x_min":0,"x_max":551,"ha":551,"o":"m 280 31 q 303 27 326 27 q 349 27 371 31 q 393 34 412 41 q 454 56 479 78 q 497 94 505 94 q 524 94 524 77 q 524 61 494 38 q 423 -9 325 -9 q 196 -9 117 68 q 40 144 40 266 q 40 381 122 456 q 204 530 328 530 q 399 530 464 501 q 514 479 514 457 q 514 447 509 442 q 503 437 496 437 q 486 437 470 448 q 438 478 375 490 q 353 495 326 495 q 299 495 280 491 z"},"!":{"x_min":0,"x_max":406,"ha":406,"o":"m 195 221 q 181 221 174 248 q 167 274 160 298 q 153 322 145 345 q 125 395 104 432 q 83 470 73 490 q 62 511 57 525 q 47 551 47 577 q 47 603 58 625 q 69 647 88 664 q 131 700 197 700 q 267 700 308 666 q 347 633 347 578 q 347 549 340 531 q 333 513 323 494 l 296 443 q 252 366 234 303 q 228 279 223 256 q 214 221 195 221 z m 96 74 q 96 116 123 139 q 149 163 196 163 q 243 163 271 137 q 295 113 295 74 q 295 39 268 16 q 239 -9 194 -9 q 124 -9 103 41 q 96 56 96 74 z"},"/":{"x_min":0,"x_max":332,"ha":332,"o":"m 60 -9 q 40 -9 40 14 q 40 27 53 45 q 63 67 77 111 l 227 625 q 246 690 262 697 q 267 700 274 700 q 292 700 292 682 q 292 671 287 661 q 282 651 279 646 q 276 640 273 633 l 269 619 q 266 611 264 605 l 106 72 q 91 19 84 8 q 74 -9 60 -9 z"},"[":{"x_min":0,"x_max":452,"ha":452,"o":"m 386 -74 q 386 -98 344 -98 l 62 -98 l 62 749 l 344 749 q 386 749 386 729 q 386 709 355 709 l 273 714 l 263 714 l 263 -62 l 281 -62 q 306 -62 326 -59 q 347 -56 358 -56 q 370 -56 378 -62 q 386 -67 386 -74 z"},"6":{"x_min":0,"x_max":682,"ha":682,"o":"m 536 613 q 493 667 397 667 q 356 667 327 660 l 327 27 q 340 25 355 25 q 469 25 536 90 q 599 150 599 242 q 599 322 556 368 q 513 415 441 415 q 416 415 405 410 q 375 399 361 404 q 355 407 353 417 q 352 426 357 432 q 362 438 372 440 q 396 449 439 449 q 483 449 518 437 q 553 424 580 398 q 637 342 637 237 q 637 124 552 55 q 474 -9 360 -9 q 233 -9 154 71 q 66 161 66 330 q 66 501 162 604 q 252 700 392 700 q 475 700 537 665 q 583 638 583 610 q 583 594 564 594 q 554 594 547 601 z"},"r":{"x_min":0,"x_max":471,"ha":471,"o":"m 84 521 l 294 521 l 294 368 q 328 452 367 491 q 406 530 445 530 q 467 530 480 519 q 493 507 493 493 q 493 479 489 471 q 485 462 479 457 q 465 444 454 444 q 435 444 426 448 q 411 455 399 455 q 388 455 370 436 q 352 417 335 384 q 294 303 294 208 l 294 0 l 84 0 z"},"2":{"x_min":0,"x_max":609,"ha":609,"o":"m 542 24 q 542 0 493 0 l 19 0 q 31 98 171 295 q 333 516 344 536 q 356 556 360 565 q 367 580 367 595 q 367 610 361 624 q 354 637 341 646 q 312 667 259 667 q 208 667 172 651 q 110 625 92 595 q 79 575 62 575 q 45 575 45 596 q 45 622 92 652 q 166 700 268 700 q 393 700 468 646 q 540 596 540 517 q 540 471 527 441 q 515 411 503 390 q 491 368 475 342 l 381 202 q 313 103 287 35 l 430 35 q 457 35 480 40 q 509 45 520 45 q 531 45 537 38 q 542 32 542 24 z"},"{":{"x_min":0,"x_max":456,"ha":456,"o":"m 400 750 q 400 728 361 730 q 331 732 296 717 l 296 499 q 296 425 258 390 q 220 354 135 347 q 216 339 259 292 q 296 251 296 185 l 296 -42 q 330 -58 358 -59 q 385 -61 393 -65 q 400 -70 400 -78 q 400 -97 369 -97 q 321 -97 273 -71 q 226 -44 188 4 q 103 112 91 277 q 89 304 81 316 q 72 328 55 330 q 25 333 25 349 q 25 364 49 366 q 72 368 79 376 q 89 388 91 416 q 100 570 174 667 q 250 768 369 768 q 385 768 393 762 q 400 757 400 750 z"},"9":{"x_min":0,"x_max":666,"ha":666,"o":"m 355 662 q 341 664 326 664 q 208 664 143 599 q 84 540 84 446 q 84 364 134 317 q 180 274 260 271 q 270 271 279 273 l 293 276 q 327 283 329 259 q 330 237 281 237 q 275 237 270 237 q 265 237 243 238 q 221 239 182 250 q 144 261 113 286 q 45 342 45 454 q 45 567 130 636 q 209 700 322 700 q 449 700 528 619 q 615 530 615 361 q 615 188 520 87 q 430 -9 291 -9 q 206 -9 145 26 q 99 53 99 81 q 99 97 118 97 q 128 97 135 90 l 146 77 q 190 24 294 24 q 325 24 355 31 z"}," ":{"x_min":0,"x_max":223,"ha":223,"o":""},"I":{"x_min":0,"x_max":405,"ha":405,"o":"m 78 691 l 327 691 l 327 0 l 78 0 z"},"H":{"x_min":0,"x_max":713,"ha":713,"o":"m 619 71 l 621 21 q 621 8 613 1 q 606 -5 596 -5 q 587 -5 581 1 q 576 7 576 17 q 576 27 578 39 q 582 54 582 115 l 582 471 l 336 471 l 336 0 l 86 0 l 86 691 l 336 691 l 336 507 q 441 507 504 507 q 567 507 582 507 l 582 592 q 582 635 580 647 l 578 662 q 578 669 578 674 q 578 696 598 696 q 605 696 613 690 q 621 685 621 671 l 619 608 l 619 509 l 650 514 q 659 514 665 509 q 670 503 670 495 q 670 476 640 474 q 635 473 630 472 q 625 472 619 472 z"},"4":{"x_min":0,"x_max":721,"ha":721,"o":"m 77 136 l 57 136 l 50 136 q 38 136 27 143 q 17 150 17 163 q 17 175 19 183 q 21 190 26 199 q 31 207 38 218 l 359 690 l 561 690 l 561 173 q 621 173 632 176 q 648 180 657 180 q 666 180 671 174 q 677 169 677 160 q 677 141 647 139 q 629 136 595 136 l 561 136 l 561 0 l 311 0 l 311 136 q 194 136 77 136 z m 311 173 l 311 551 l 69 188 q 62 179 66 176 q 69 173 84 173 z"},"~":{"x_min":0,"x_max":587,"ha":587,"o":"m 273 321 q 130 431 83 315 q 69 282 52 284 q 34 286 36 308 q 38 336 71 371 q 162 457 297 351 l 343 317 q 377 293 391 290 q 405 286 423 284 q 466 280 493 343 q 500 363 507 369 q 514 375 523 375 q 543 372 541 354 q 539 332 522 310 q 470 231 381 255 q 346 264 273 321 z"},"D":{"x_min":0,"x_max":771,"ha":771,"o":"m 86 691 l 290 691 q 432 691 498 671 q 574 647 615 611 q 656 574 680 535 q 728 456 728 354 q 728 195 613 97 q 532 26 422 9 q 361 0 251 0 l 86 0 z m 335 41 q 343 40 350 40 l 361 40 q 493 40 587 123 q 686 209 686 354 q 686 444 643 517 q 580 623 443 646 q 399 653 335 654 z"},"^":{"x_min":0,"x_max":458,"ha":458,"o":"m 99 460 q 86 439 70 439 q 64 439 59 445 q 53 450 53 458 q 53 469 65 484 l 84 509 q 91 518 102 532 l 202 677 q 217 700 235 700 q 253 700 269 677 q 388 512 394 504 l 405 490 q 421 471 421 460 q 421 450 415 445 q 409 439 399 439 q 390 439 383 447 q 376 455 370 465 l 316 546 l 235 657 q 125 501 122 496 l 104 469 q 101 463 99 460 z"},"0":{"x_min":0,"x_max":658,"ha":658,"o":"m 327 -9 q 260 -9 208 14 q 155 37 119 83 q 43 177 43 359 q 43 521 119 610 q 195 700 335 700 q 470 700 543 609 q 615 520 615 353 q 615 176 538 82 q 463 -9 327 -9 z m 331 24 q 504 24 558 202 q 577 264 577 351 q 577 438 559 498 q 541 558 509 596 q 447 668 334 668 l 329 668 l 329 24 z"},"F":{"x_min":0,"x_max":565,"ha":565,"o":"m 492 443 l 472 444 q 461 445 445 445 l 335 445 l 335 0 l 86 0 l 86 691 l 474 691 l 522 692 l 531 692 q 568 692 568 671 q 568 663 561 656 q 555 648 547 648 q 534 648 522 651 q 500 656 464 656 l 335 656 l 335 480 l 434 480 q 434 480 494 482 q 521 482 521 463 q 521 443 492 443 z"},"`":{"x_min":0,"x_max":284,"ha":284,"o":"m 44 722 l 182 722 l 239 583 l 164 583 z"},"k":{"x_min":0,"x_max":642,"ha":642,"o":"m 84 691 l 294 691 l 294 318 l 500 467 q 529 489 547 510 q 564 530 577 530 q 599 530 599 512 q 599 499 582 485 l 458 389 l 637 0 l 419 0 l 294 275 l 294 0 l 84 0 z"},"u":{"x_min":0,"x_max":729,"ha":729,"o":"m 255 -9 q 84 -9 84 158 l 84 521 l 293 521 l 293 43 q 298 41 305 41 l 321 41 q 360 41 414 94 q 430 110 444 129 l 444 521 l 654 521 l 654 0 l 444 0 l 444 75 q 365 -9 255 -9 z"},"]":{"x_min":0,"x_max":452,"ha":452,"o":"m 86 -98 q 44 -98 44 -74 q 44 -67 52 -62 q 61 -56 72 -56 q 83 -56 91 -57 l 106 -59 q 128 -62 149 -62 l 167 -62 l 167 714 l 157 714 q 157 714 75 709 q 44 709 44 729 q 44 749 86 749 l 368 749 l 368 -98 z"},"U":{"x_min":0,"x_max":767,"ha":767,"o":"m 695 670 l 692 610 l 692 318 q 692 173 609 83 q 524 -9 384 -9 q 233 -9 149 85 q 71 171 71 307 l 71 691 l 321 691 l 321 32 q 358 27 404 27 q 449 27 495 45 q 542 63 577 102 q 653 185 654 344 l 654 609 q 654 624 652 644 q 650 664 650 671 q 650 696 674 696 q 695 696 695 670 z"},"o":{"x_min":0,"x_max":636,"ha":636,"o":"m 40 264 q 40 322 61 370 q 82 418 119 454 q 199 530 320 530 q 444 530 521 451 q 596 376 596 262 q 596 147 520 70 q 441 -9 318 -9 q 199 -9 120 66 q 40 145 40 264 z m 305 27 q 309 27 312 27 l 319 27 q 418 27 485 88 q 556 154 556 261 q 556 365 489 430 q 423 495 319 495 l 312 495 q 308 495 305 494 z"},"N":{"x_min":0,"x_max":750,"ha":750,"o":"m 130 70 l 132 21 q 132 8 125 1 q 118 -5 109 -5 q 99 -5 93 1 q 86 7 86 15 q 86 22 88 29 q 89 36 90 44 q 92 58 92 115 l 92 722 l 623 301 l 623 592 q 623 625 621 640 q 619 663 619 672 q 619 696 640 696 q 648 696 656 690 q 663 685 663 673 l 663 656 l 661 585 l 661 -27 l 130 390 z"},"+":{"x_min":0,"x_max":495,"ha":495,"o":"m 259 178 l 263 102 q 263 93 258 87 q 252 81 242 81 q 232 81 226 88 q 219 95 220 107 l 223 180 l 223 257 q 173 257 143 257 q 113 257 104 257 q 82 255 71 254 q 61 253 54 260 q 47 267 47 277 q 47 286 53 292 q 59 297 66 297 q 85 297 98 296 l 115 294 q 126 293 143 293 l 223 293 l 223 371 l 220 444 q 219 456 226 463 q 232 470 242 470 q 252 470 258 464 q 263 458 263 449 l 259 374 l 259 293 l 339 293 q 355 293 363 294 l 377 295 q 398 297 411 297 q 436 297 436 276 q 436 267 428 260 q 421 253 413 254 q 380 257 364 257 l 259 257 z"},"G":{"x_min":0,"x_max":791,"ha":791,"o":"m 666 36 l 667 69 l 667 146 q 598 32 464 0 q 421 -9 365 -9 q 309 -9 248 14 q 188 38 143 82 q 43 179 43 336 q 43 487 148 592 q 258 700 424 700 q 508 700 576 668 q 618 650 635 634 q 652 618 652 609 q 652 599 646 592 q 640 585 630 585 q 619 585 606 597 q 569 630 540 640 q 512 650 495 655 q 478 659 464 661 q 443 664 414 664 q 385 664 361 659 l 361 27 q 366 27 372 27 l 381 27 q 526 27 616 137 q 647 174 667 226 l 667 272 q 667 272 665 316 q 665 342 685 342 q 696 342 702 335 q 708 328 708 318 l 705 277 l 705 96 l 708 20 q 708 8 701 1 q 694 -5 686 -5 q 664 -5 664 17 q 664 23 666 36 z"},"q":{"x_min":0,"x_max":730,"ha":730,"o":"m 454 24 q 393 -9 324 -9 q 256 -9 205 11 q 153 31 117 67 q 41 143 41 264 q 41 376 116 451 q 196 530 325 530 q 393 530 454 500 l 454 521 l 655 521 l 655 -156 l 454 -156 z m 315 495 q 300 495 286 493 l 286 30 q 304 27 324 27 q 396 27 454 68 l 454 458 q 389 495 315 495 z"},"d":{"x_min":0,"x_max":730,"ha":730,"o":"m 454 27 q 393 -9 325 -9 q 257 -9 205 11 q 154 31 117 67 q 41 143 41 264 q 41 376 116 451 q 196 530 325 530 q 394 530 454 500 l 454 691 l 655 691 l 655 0 l 454 0 z m 315 495 q 300 495 287 493 l 287 30 q 304 27 325 27 q 393 27 454 70 l 454 457 q 388 495 315 495 z"},"1":{"x_min":0,"x_max":481,"ha":481,"o":"m 138 592 l 106 583 q 76 574 61 566 q 34 551 21 552 q 0 552 2 570 q 3 588 35 595 q 53 600 71 605 l 388 701 l 388 0 l 138 0 z"},"5":{"x_min":0,"x_max":615,"ha":615,"o":"m 132 450 q 208 483 283 483 q 357 483 409 463 q 461 443 497 409 q 569 339 569 238 q 569 134 491 64 q 410 -9 276 -9 q 183 -9 93 47 q 62 68 48 95 q 44 102 44 108 q 44 132 62 132 q 79 132 91 112 q 103 92 120 77 q 138 62 162 50 q 215 25 281 25 l 295 25 q 302 25 308 26 l 308 446 q 292 448 265 448 q 239 448 201 438 q 163 427 143 417 q 117 402 107 402 q 98 402 94 409 q 89 415 90 422 l 116 645 q 117 648 117 652 l 117 661 q 117 686 121 690 q 126 695 141 695 l 212 690 l 309 690 q 429 690 479 700 q 483 701 491 701 q 498 701 504 694 q 510 687 510 680 q 510 657 455 656 q 441 656 428 656 l 156 656 z"}}}
